<?xml version="1.0" encoding="UTF-8" standalone="no"?>
<svg width="20px" height="31px" viewBox="0 0 20 31" version="1.1" xmlns="http://www.w3.org/2000/svg" xmlns:xlink="http://www.w3.org/1999/xlink">
    <!-- Generator: sketchtool 44 (41411) - http://www.bohemiancoding.com/sketch -->
    <title>E228E0E8-8E3F-4C1A-8C1E-C03F7172189D</title>
    <desc>Created with sketchtool.</desc>
    <defs>
        <path d="M708,589.828571 L701.221607,595.057618 L701.221607,595.057618 C700.501842,595.612865 699.498158,595.612865 698.778393,595.057618 L692,589.828571 L692,571 L692,571 C692,569.895431 692.895431,569 694,569 L706,569 L706,569 C707.104569,569 708,569.895431 708,571 L708,589.828571 Z" id="path-1"></path>
        <filter x="-21.9%" y="-9.6%" width="143.8%" height="126.9%" filterUnits="objectBoundingBox" id="filter-2">
            <feOffset dx="0" dy="1" in="SourceAlpha" result="shadowOffsetOuter1"></feOffset>
            <feGaussianBlur stdDeviation="1" in="shadowOffsetOuter1" result="shadowBlurOuter1"></feGaussianBlur>
            <feComposite in="shadowBlurOuter1" in2="SourceAlpha" operator="out" result="shadowBlurOuter1"></feComposite>
            <feColorMatrix values="0 0 0 0 0   0 0 0 0 0   0 0 0 0 0  0 0 0 0.3 0" type="matrix" in="shadowBlurOuter1"></feColorMatrix>
        </filter>
    </defs>
    <g id="Page-1" stroke="none" stroke-width="1" fill="none" fill-rule="evenodd">
        <g id="Controls" transform="translate(-690.000000, -568.000000)">
            <g id="slider-arrrow-selected">
                <use fill="black" fill-opacity="1" filter="url(#filter-2)" xlink:href="#path-1"></use>
                <use fill="#FFFFFF" fill-rule="evenodd" xlink:href="#path-1"></use>
                <path stroke="#1E6E96" stroke-width="1" d="M707.5,589.582799 L707.5,571 C707.5,570.171573 706.828427,569.5 706,569.5 L694,569.5 C693.171573,569.5 692.5,570.171573 692.5,571 L692.5,589.582799 L699.083795,594.661726 C699.623619,595.078162 700.376381,595.078162 700.916205,594.661726 L707.5,589.582799 Z"></path>
            </g>
        </g>
    </g>
</svg>