<svg xmlns="http://www.w3.org/2000/svg" xmlns:xlink="http://www.w3.org/1999/xlink" width="48" height="48" viewBox="0 0 48 48">
    <defs>
        <path id="a" d="M18 27h-4v4h4v-4zm8 0h-4v4h4v-4zm8 0h-4v4h4v-4zm4-19h-2V4h-4v4H16V4h-4v4h-2c-2.22 0-3.98 1.8-3.98 4L6 40c0 2.2 1.78 4 4 4h28c2.2 0 4-1.8 4-4V12c0-2.2-1.8-4-4-4zm0 32H10V18h28v22z"/>
    </defs>
    <g fill="none" fill-rule="evenodd">
        <path d="M0 0h48v48H0z"/>
        <mask id="b" fill="#c7c4c4">
            <use xlink:href="#a"/>
        </mask>
        <use fill="#c7c4c4" fill-rule="nonzero" xlink:href="#a"/>
        <g fill="#c7c4c4" mask="url(#b)">
            <path d="M0 2h48v43H0z"/>
        </g>
    </g>
</svg>
