<?xml version="1.0" encoding="UTF-8" standalone="no"?>
<svg width="28px" height="36px" viewBox="0 0 28 36" version="1.1" xmlns="http://www.w3.org/2000/svg" xmlns:xlink="http://www.w3.org/1999/xlink">
    <!-- Generator: sketchtool 46.1 (44463) - http://www.bohemiancoding.com/sketch -->
    <title>1BBF3B9B-773C-49E0-979D-F0ABA79A2BB6</title>
    <desc>Created with sketchtool.</desc>
    <defs></defs>
    <g id="Styles" stroke="none" stroke-width="1" fill="none" fill-rule="evenodd">
        <g id="Styles-/-Icons" transform="translate(-1346.000000, -2972.000000)">
            <g id="icon/icn_delete" transform="translate(1336.000000, 2966.000000)">
                <rect id="Rectangle-4" opacity="0.100000001" x="0" y="0" width="48" height="48"></rect>
                <path d="M12,38 C12,40.2 13.8,42 16,42 L32,42 C34.2,42 36,40.2 36,38 L36,14 L12,14 L12,38 Z M16.92,23.76 L19.74,20.94 L24,25.18 L28.24,20.94 L31.06,23.76 L26.82,28 L31.06,32.24 L28.24,35.06 L24,30.82 L19.76,35.06 L16.94,32.24 L21.18,28 L16.92,23.76 Z M31,8 L29,6 L19,6 L17,8 L10,8 L10,12 L38,12 L38,8 L31,8 Z" id="Shape" fill="#fff" fill-rule="nonzero"></path>
            </g>
        </g>
    </g>
</svg>