<svg xmlns="http://www.w3.org/2000/svg" xmlns:xlink="http://www.w3.org/1999/xlink" width="48" height="48" viewBox="0 0 48 48">
    <defs>
        <path id="a" d="M38 16H10c-3.31 0-6 2.69-6 6v12h8v8h24v-8h8V22c0-3.31-2.69-6-6-6zm-6 22H16V28h16v10zm6-14c-1.11 0-2-.89-2-2 0-1.11.89-2 2-2 1.11 0 2 .89 2 2 0 1.11-.89 2-2 2zM36 6H12v8h24V6z"/>
    </defs>
    <g fill="none" fill-rule="evenodd">
        <path d="M0 0h48v48H0z"/>
        <mask id="b" fill="#299ed9">
            <use xlink:href="#a"/>
        </mask>
        <use fill="#299ed9" fill-rule="nonzero" xlink:href="#a"/>
        <g fill="#299ed9" mask="url(#b)">
            <path d="M-2 2h48v43H-2z"/>
        </g>
    </g>
</svg>
