<svg xmlns="http://www.w3.org/2000/svg" xmlns:xlink="http://www.w3.org/1999/xlink" width="48" height="48" viewBox="0 0 48 48">
    <defs>
        <path id="a" d="M34 22H14v4h20v-4zm4-14h-2V4h-4v4H16V4h-4v4h-2c-2.21 0-3.98 1.79-3.98 4L6 40c0 2.21 1.79 4 4 4h28c2.21 0 4-1.79 4-4V12c0-2.21-1.79-4-4-4zm0 32H10V18h28v22zM28 30H14v4h14v-4z"/>
    </defs>
    <g fill="none" fill-rule="evenodd">
        <path d="M0 0h48v48H0z"/>
        <mask id="b" fill="#fff">
            <use xlink:href="#a"/>
        </mask>
        <use fill="#443b3b" fill-rule="nonzero" xlink:href="#a"/>
        <g fill="#443B3B" mask="url(#b)">
            <path d="M6 4h40v40H6z"/>
        </g>
    </g>
</svg>
