<svg xmlns="http://www.w3.org/2000/svg" xmlns:xlink="http://www.w3.org/1999/xlink" width="48" height="48" viewBox="0 0 48 48">
  <defs>
    <path id="a" d="M35.28 12.7C32.39 9.8 28.4 8 23.98 8 15.14 8 8 15.16 8 24s7.14 16 15.98 16c7.45 0 13.69-5.1 15.46-12h-4.16c-1.65 4.66-6.07 8-11.3 8-6.63 0-12-5.37-12-12s5.37-12 12-12c3.31 0 6.28 1.38 8.45 3.55L25.98 22h14V8l-4.7 4.7z"/>
  </defs>
  <g fill="none" fill-rule="evenodd">
    <path d="M0 0h48v48H0z"/>
    <mask id="b" fill="#ffffff">
      <use xlink:href="#a"/>
    </mask>
    <use fill="#ffffff" fill-rule="nonzero" xlink:href="#a"/>
    <g fill="#ffffff" mask="url(#b)">
      <path d="M6 2h40v43H6z"/>
    </g>
  </g>
</svg>
