<svg xmlns="http://www.w3.org/2000/svg" width="22" height="19" viewBox="0 0 22 19">
    <g fill="none" fill-rule="evenodd">
        <path d="M-1-3h24v24H-1z"/>
        <path fill="#1e6e96" fill-rule="nonzero" d="M10.988 4.449c2.761 0 5.003 2.194 5.003 4.898 0 .632-.13 1.234-.355 1.788L18.563 14A11.647 11.647 0 0 0 22 9.347C20.264 5.047 15.996 2 10.988 2 9.587 2 8.246 2.245 7 2.686l2.161 2.11a5.123 5.123 0 0 1 1.827-.347zM1 1.275l2.28 2.28.455.455A11.844 11.844 0 0 0 0 9c1.73 4.39 6 7.5 11 7.5 1.55 0 3.03-.3 4.385-.845l.425.425L18.725 19 20 17.73 2.275 0 1 1.275zM6.516 7l1.503 1.502a3.079 3.079 0 0 0-.073.637 2.92 2.92 0 0 0 2.918 2.917 3 3 0 0 0 .633-.073L13 13.485a4.788 4.788 0 0 1-2.136.515A4.865 4.865 0 0 1 6 9.139C6 8.37 6.195 7.65 6.516 7zM11 6.014L13.986 9 14 8.844A2.846 2.846 0 0 0 11.156 6L11 6.014z"/>
    </g>
</svg>
