<svg xmlns="http://www.w3.org/2000/svg" width="24" height="24" viewBox="0 0 40 44">
    <g fill="none" fill-rule="evenodd">
        <path d="M-4-2h48v48H-4z"/>
        <path fill="#443B3B" d="M6.358 30.87l3.604-3.604c1.461 2.861 4.077 5.066 7.254 6.037l-4.035 4.207-6.823-6.64zm-2.425 2.427l6.874 6.689L6.957 44 0 37.23l3.933-3.933zm24.498 4.457l-4.23-4.357a12.168 12.168 0 0 0 7.04-5.19l3.4 3.503-6.21 6.044zm2.389 2.462l6.211-6.044L40 37.23l-6.211 6.044-2.97-3.06zM13.913 22h13.913c0 3.739-3.114 6.77-6.956 6.77-3.842 0-6.957-3.031-6.957-6.77zm-7.555-8.87l6.823-6.64 4.035 4.207c-3.177.97-5.793 3.176-7.254 6.037l-3.604-3.605zm-2.425-2.427L0 6.769 6.957 0l3.85 4.014-6.874 6.689zM28.43 6.246l6.21 6.044-3.4 3.504a12.168 12.168 0 0 0-7.04-5.19l4.23-4.358zm2.389-2.462L33.789.725 40 6.77l-2.969 3.06-6.211-6.045zM13.913 22c0-3.739 3.115-6.77 6.957-6.77 3.842 0 6.956 3.031 6.956 6.77H13.913z"/>
    </g>
</svg>
