<svg xmlns="http://www.w3.org/2000/svg" xmlns:xlink="http://www.w3.org/1999/xlink" width="48" height="48" viewBox="0 0 48 48">
    <defs>
        <path id="a" d="M8 16h8V8H8v8zm12 24h8v-8h-8v8zM8 40h8v-8H8v8zm0-12h8v-8H8v8zm12 0h8v-8h-8v8zM32 8v8h8V8h-8zm-12 8h8V8h-8v8zm12 12h8v-8h-8v8zm0 12h8v-8h-8v8z"/>
    </defs>
    <g fill="none" fill-rule="evenodd">
        <path d="M0 0h48v48H0z"/>
        <mask id="b" fill="#fff">
            <use xlink:href="#a"/>
        </mask>
        <use fill="#fff" fill-rule="nonzero" xlink:href="#a"/>
        <g fill="#fff" mask="url(#b)">
            <path d="M6 4h40v40H6z"/>
        </g>
    </g>
</svg>
