<?xml version="1.0" encoding="UTF-8" standalone="no"?>
<svg width="18px" height="18px" viewBox="0 0 18 18" version="1.1" xmlns="http://www.w3.org/2000/svg" xmlns:xlink="http://www.w3.org/1999/xlink">
    <!-- Generator: sketchtool 44 (41411) - http://www.bohemiancoding.com/sketch -->
    <title>57812620-4BCB-43EF-BAFB-64B57CDDD97C</title>
    <desc>Created with sketchtool.</desc>
    <defs>
        <path d="M19,5 L19,19 L5,19 L5,5 L19,5 L19,5 Z M19,3 L5,3 C3.895,3 3,3.895 3,5 L3,19 C3,20.105 3.895,21 5,21 L19,21 C20.105,21 21,20.105 21,19 L21,5 C21,3.895 20.105,3 19,3 Z" id="path-1"></path>
    </defs>
    <g id="Page-1" stroke="none" stroke-width="1" fill="none" fill-rule="evenodd">
        <g id="Control-Centre-/-Actions-Inline-Hold-Priority" transform="translate(-51.000000, -263.000000)">
            <g id="Group-2" transform="translate(40.000000, 155.000000)">
                <g id="table/row/multi-line" transform="translate(0.000000, 92.000000)">
                    <g id="Checkbox">
                        <g id="icon/icn_checkbox_normal" transform="translate(8.000000, 13.000000)">
                            <g id="Group">
                                <rect id="bg" x="0" y="0" width="24" height="24"></rect>
                                <mask id="mask-2" fill="#c7c4c4">
                                    <use xlink:href="#path-1"></use>
                                </mask>
                                <use id="Shape" fill="#c7c4c4" fill-rule="nonzero" xlink:href="#path-1"></use>
                            </g>
                        </g>
                    </g>
                </g>
            </g>
        </g>
    </g>
</svg>