<?xml version="1.0" encoding="UTF-8" standalone="no"?>
<svg width="20px" height="18px" viewBox="0 0 20 18" version="1.1" xmlns="http://www.w3.org/2000/svg" xmlns:xlink="http://www.w3.org/1999/xlink">
    <!-- Generator: sketchtool 44 (41411) - http://www.bohemiancoding.com/sketch -->
    <title>F4A4D89E-E25F-4A70-A326-445A5A5EADBB</title>
    <desc>Created with sketchtool.</desc>
    <defs>
        <path d="M19,8 L5,8 C3.345,8 2,9.345 2,11 L2,17 L6,17 L6,21 L18,21 L18,17 L22,17 L22,11 C22,9.345 20.655,8 19,8 Z M16,19 L8,19 L8,14 L16,14 L16,19 Z M19,12 C18.445,12 18,11.555 18,11 C18,10.445 18.445,10 19,10 C19.555,10 20,10.445 20,11 C20,11.555 19.555,12 19,12 Z M18,3 L6,3 L6,7 L18,7 L18,3 Z" id="path-1"></path>
    </defs>
    <g id="Page-1" stroke="none" stroke-width="1" fill="none" fill-rule="evenodd">
        <g id="Control-Centre-/-Assets" transform="translate(-321.000000, -390.000000)">
            <g id="btn" transform="translate(315.000000, 383.000000)">
                <g id="icon/icn_print_white" transform="translate(4.000000, 4.000000)">
                    <rect id="icn_bg" x="0" y="0" width="24" height="24"></rect>
                    <mask id="mask-2" fill="white">
                        <use xlink:href="#path-1"></use>
                    </mask>
                    <use id="Shape" fill="#FFFFFF" fill-rule="nonzero" xlink:href="#path-1"></use>
                </g>
            </g>
        </g>
    </g>
</svg>