<?xml version="1.0" encoding="UTF-8" standalone="no"?>
<svg width="40px" height="40px" viewBox="0 0 40 40" version="1.1" xmlns="http://www.w3.org/2000/svg" xmlns:xlink="http://www.w3.org/1999/xlink">
    <!-- Generator: sketchtool 46.1 (44463) - http://www.bohemiancoding.com/sketch -->
    <title>DD7C4A13-3061-41C4-95B8-FFC4CD0F588E</title>
    <desc>Created with sketchtool.</desc>
    <defs></defs>
    <g id="Styles" stroke="none" stroke-width="1" fill="none" fill-rule="evenodd">
        <g id="Styles-/-Icons" transform="translate(-620.000000, -3371.000000)">
            <g id="icon/icn_add-comment" transform="translate(616.000000, 3367.000000)">
                <rect id="bg" x="0" y="0" width="48" height="48"></rect>
                <path d="M26,22 L36,22 L36,18 L26,18 L26,8 L22,8 L22,18 L12,18 L12,22 L22,22 L22,32 L26,32 L26,22 Z M40,4 C42.21,4 44,5.79 44,8 L44,44 L36,36 L8,36 C5.79,36 4,34.21 4,32 L4,8 C4,5.79 5.79,4 8,4 L40,4 Z" id="Shape" fill="#fff" fill-rule="nonzero"></path>
            </g>
        </g>
    </g>
</svg>