<svg width="24" height="24" xmlns="http://www.w3.org/2000/svg">

 <g>
  <title>Layer 1</title>
  <g id="svg_9">
   <g id="svg_10">
    <path fill="#443B3B" id="svg_2" d="m11.922759,1.026585c-6.53677,0 -11.885022,5.399992 -11.885022,12.000017c0,3.800001 1.683711,7.1 4.456876,9.300001c0.495209,0.4 1.188501,0.9 1.782752,0.5c0.495209,-0.400002 0.396167,-0.6 0.792336,-1.200001c1.08947,-1.6 2.872222,-2.700001 4.9521,-2.700001s3.86263,1.1 4.952089,2.700001c0.396168,0.6 0.495209,0.799999 0.891376,1.200001c0.396166,0.4 1.08946,-0.1 1.584669,-0.5c2.674128,-2.200001 4.456881,-5.6 4.456881,-9.300001c-0.099043,-6.600025 -5.447298,-12.000017 -11.984057,-12.000017zm6.536759,19.500017c-1.386585,-2.1 -3.862631,-3.5 -6.536759,-3.5s-5.150185,1.4 -6.53677,3.5c-2.079873,-1.9 -3.367415,-4.5 -3.367415,-7.5c0,-5.500021 4.456874,-10.000012 9.904185,-10.000012s9.90418,4.499991 9.90418,10.000012c0,3 -1.287542,5.6 -3.36742,7.5z"/>
    <path fill="#443B3B" id="svg_3" d="m12.037743,5.026577c-1.1,0 -2,0.9 -2,2c0,1.100012 0.9,2.000025 2,2.000025s2,-0.900013 2,-2.000025c0,-1.1 -0.9,-2 -2,-2zm0,3.00001c-0.6,0 -1,-0.400004 -1,-1.00001s0.4,-1 1,-1s1,0.4 1,1s-0.4,1.00001 -1,1.00001z"/>
    <path fill="#443B3B" id="svg_4" d="m17.937742,10.726603c0.800001,-0.700001 1,-2.000004 0.200001,-2.800016c-0.700001,-0.80001 -2,-1.00001 -2.800001,-0.200002c-0.799999,0.70001 -0.999999,2.000019 -0.199999,2.800018c0.699999,0.8 1.9,0.900001 2.799999,0.200001zm-1.9,-2.300009c0.4,-0.400007 1,-0.300005 1.4,0.100001s0.300001,1.100007 -0.1,1.400007c-0.4,0.4 -1.099998,0.3 -1.4,-0.1c-0.4,-0.5 -0.4,-1.100003 0.1,-1.400008z"/>
    <path  fill="#443B3B" id="svg_5" d="m18.337742,12.126602c-1.099998,-0.2 -2.099998,0.5 -2.299999,1.6c-0.200001,1.099999 0.5,2.1 1.6,2.299999c1.1,0.200001 2.1,-0.5 2.299999,-1.599999c0.200001,-1.1 -0.6,-2.1 -1.6,-2.3zm-0.599998,2.9c-0.5,-0.099999 -0.900002,-0.599999 -0.800001,-1.2c0.1,-0.5 0.6,-0.9 1.200001,-0.8s0.9,0.6 0.799999,1.200001c-0.1,0.5 -0.6,0.9 -1.199999,0.799999z"/>
    <path fill="#443B3B" id="svg_6" d="m5.937731,7.826585c-0.7,0.800012 -0.6,2.100018 0.2,2.800017c0.8,0.7 2.100012,0.6 2.800012,-0.2c0.700001,-0.8 0.6,-2.100009 -0.2,-2.80002c-0.900002,-0.700006 -2.100012,-0.600006 -2.800012,0.200003zm2.300012,2.000017c-0.400002,0.400001 -1.00001,0.5 -1.400012,0.1s-0.5,-1.000002 -0.1,-1.400007c0.3,-0.400006 0.900008,-0.500009 1.300012,-0.100001c0.5,0.300005 0.5,0.900008 0.2,1.400008z"/>
    <path fill="#443B3B" id="svg_7" d="m5.737731,12.126602c-1.1,0.2 -1.799999,1.2 -1.6,2.3c0.2,1.099999 1.2,1.8 2.3,1.599999c1.100006,-0.199999 1.800012,-1.2 1.600012,-2.299999c-0.100001,-1.1 -1.200012,-1.8 -2.300012,-1.6zm0.6,2.9c-0.5,0.1 -1.1,-0.299999 -1.2,-0.799999c-0.1,-0.5 0.3,-1.1 0.8,-1.200001c0.5,-0.099999 1.1,0.3 1.200001,0.8s-0.300001,1.1 -0.800001,1.2z"/>
   </g>
  </g>
 </g>
</svg>