<?xml version="1.0" encoding="UTF-8" standalone="no"?>
<svg width="48px" height="48px" viewBox="0 0 48 48" version="1.1" xmlns="http://www.w3.org/2000/svg" xmlns:xlink="http://www.w3.org/1999/xlink">
    <!-- Generator: sketchtool 46.1 (44463) - http://www.bohemiancoding.com/sketch -->
    <title>2287FEBF-892B-4082-8D0B-119FA39CC1E7</title>
    <desc>Created with sketchtool.</desc>
    <defs>
        <path d="M38,8 L29.63,8 C28.81,5.68 26.61,4 24,4 C21.39,4 19.19,5.68 18.37,8 L10,8 C7.79,8 6,9.79 6,12 L6,40 C6,42.21 7.79,44 10,44 L38,44 C40.21,44 42,42.21 42,40 L42,12 C42,9.79 40.21,8 38,8 Z M24,8 C25.1,8 26,8.89 26,10 C26,11.11 25.1,12 24,12 C22.9,12 22,11.11 22,10 C22,8.89 22.9,8 24,8 Z M24,16 C27.31,16 30,18.69 30,22 C30,25.32 27.31,28 24,28 C20.69,28 18,25.32 18,22 C18,18.69 20.69,16 24,16 Z M36,40 L12,40 L12,37.2 C12,33.2 20,31 24,31 C28,31 36,33.2 36,37.2 L36,40 Z" id="path-1"></path>
    </defs>
    <g id="Page-1" stroke="none" stroke-width="1" fill="none" fill-rule="evenodd">
        <g id="icon/settings-/-icn_settings_roles">
            <g id="icon/icn_user_profile">
                <rect id="bg" x="0" y="0" width="48" height="48"></rect>
                <mask id="mask-2" fill="white">
                    <use xlink:href="#path-1"></use>
                </mask>
                <use id="Shape" fill="#fff" fill-rule="nonzero" xlink:href="#path-1"></use>
                <g id="colours/text-white" mask="url(#mask-2)" fill="#fff">
                    <rect x="0" y="0" width="48" height="48"></rect>
                </g>
            </g>
        </g>
    </g>
</svg>