<svg xmlns="http://www.w3.org/2000/svg" xmlns:xlink="http://www.w3.org/1999/xlink" width="48" height="48" viewBox="0 0 48 48">
    <defs>
        <path id="a" d="M24 9C14 9 5.46 15.22 2 24c3.46 8.78 12 15 22 15s18.54-6.22 22-15C42.54 15.22 34.01 9 24 9zm0 25c-5.52 0-10-4.48-10-10s4.48-10 10-10 10 4.48 10 10-4.48 10-10 10zm0-16c-3.31 0-6 2.69-6 6s2.69 6 6 6 6-2.69 6-6-2.69-6-6-6z"/>
    </defs>
    <g fill="none" fill-rule="evenodd">
        <path d="M0 0h48v48H0z"/>
        <mask id="b" fill="#fff">
            <use xlink:href="#a"/>
        </mask>
        <use fill="#c7c4c4" fill-rule="nonzero" xlink:href="#a"/>
        <g fill="#c7c4c4" mask="url(#b)">
            <path d="M0 4h48v40H0z"/>
        </g>
    </g>
</svg>
