<?xml version="1.0" encoding="UTF-8"?>
<svg width="210px" height="40px" viewBox="0 0 210 40" version="1.1" xmlns="http://www.w3.org/2000/svg" xmlns:xlink="http://www.w3.org/1999/xlink">
    <!-- Generator: Sketch 46.2 (44496) - http://www.bohemiancoding.com/sketch -->
    <title>logo-corsys</title>
    <desc>Created with Sketch.</desc>
    <defs></defs>
    <g id="Page-1" stroke="none" stroke-width="1" fill="none" fill-rule="evenodd">
        <g id="logo-corsys" fill-rule="nonzero">
            <g id="logo">
                <g id="icon">
                    <path d="M38.2156697,12.0260183 C35.4072294,10.8190459 32.3782385,10.2906055 29.3753028,10.4351927 C29.145945,15.2102385 27.2112661,19.9188624 23.5642936,23.5658349 C19.9173211,27.2124404 15.2090642,29.1474862 10.4336514,29.376844 C10.2894312,32.3794128 10.8175046,35.4087706 12.0244771,38.217211 C17.1514495,40.5405138 26.7925505,41.2120734 34.0017248,34.0028991 C41.2105321,26.7940917 40.5422752,17.3981284 38.2156697,12.0260183" id="Fill-1" fill="#F05F00"></path>
                    <path d="M27.7875963,1.59794495 C28.9945688,4.40601835 29.5230092,7.43537615 29.378422,10.437945 C24.6033761,10.6676697 19.8947523,12.6023486 16.2481468,16.2493211 C12.6011743,19.8962936 10.6661284,24.6045505 10.4367706,29.3799633 C7.43420183,29.5241835 4.40484404,28.9957431 1.59640367,27.7891376 C-0.726899083,22.6621651 -1.39845872,13.0206972 5.8107156,5.81188991 C13.0195229,-1.39691743 22.4154862,-0.729027523 27.7875963,1.59794495" id="Fill-4" fill="#F05F00"></path>
                    <path d="M38.2124404,12.0260183 C35.4051009,10.8194128 32.377211,10.2913394 29.3753761,10.4351927 C29.5192294,7.4333578 28.990789,4.40546789 27.7841835,1.59776147 C27.7313394,1.57390826 27.6770275,1.55042202 27.6230826,1.52656881 C29.9394128,2.4986789 32.1093211,3.92620183 33.9951927,5.81207339 C35.8601468,7.67702752 37.2770275,9.81977982 38.2480367,12.1067523 C38.2362936,12.0799633 38.2245505,12.0524404 38.2124404,12.0260183" id="Fill-7" fill="#FFAA00"></path>
                    <path d="M12.0246239,38.2138349 C10.8183853,35.4064954 10.289945,32.3786055 10.4337982,29.3767706 C7.4319633,29.5206239 4.40407339,28.9921835 1.59636697,27.785945 C1.57251376,27.7327339 1.54902752,27.678422 1.52517431,27.6244771 C2.4972844,29.9404404 3.92480734,32.1107156 5.8106789,33.9965872 C7.67563303,35.8615413 9.81838532,37.278055 12.1053578,38.2494312 C12.0785688,38.2373211 12.0510459,38.225945 12.0246239,38.2138349" id="Fill-9" fill="#FFAA00"></path>
                </g>
                <path d="M69.6082936,12.6924037 L69.6082936,13.0931376 C69.6082936,13.6942385 69.2574679,14.0454312 68.656367,14.0454312 L65.5503119,14.0454312 C64.948844,14.0454312 64.5983853,13.6942385 64.5983853,13.0931376 L64.5983853,12.341578 C64.5983853,9.28579817 62.8948991,7.98304587 59.788844,7.98304587 C56.7326972,7.98304587 54.9793028,9.28579817 54.9793028,12.341578 L54.9793028,27.4714862 C54.9793028,30.4777248 56.7326972,31.8303853 59.788844,31.8303853 C62.8948991,31.8303853 64.5983853,30.4777248 64.5983853,27.4714862 L64.5983853,26.7202936 C64.5983853,26.1191927 64.948844,25.768367 65.5503119,25.768367 L68.656367,25.768367 C69.2574679,25.768367 69.6082936,26.1191927 69.6082936,26.7202936 L69.6082936,27.0711193 C69.6082936,32.9324037 66.5022385,36.4395596 59.788844,36.4395596 C53.1253578,36.4395596 49.9693945,32.9324037 49.9693945,27.0711193 L49.9693945,12.6924037 C49.9693945,6.83075229 53.1253578,3.37387156 59.788844,3.37387156 C66.5022385,3.37387156 69.6082936,6.83075229 69.6082936,12.6924037 L69.6082936,12.6924037 Z M81.3302752,12.3417248 L81.3302752,27.471633 C81.3302752,30.4775046 83.0836697,31.8305321 86.1398165,31.8305321 C89.2458716,31.8305321 90.9493578,30.4775046 90.9493578,27.471633 L90.9493578,12.3417248 C90.9493578,9.28557798 89.2458716,7.98319266 86.1398165,7.98319266 C83.0836697,7.98319266 81.3302752,9.28557798 81.3302752,12.3417248 L81.3302752,12.3417248 Z M95.9592661,12.6925505 L95.9592661,27.0708991 C95.9592661,32.9325505 92.853211,36.4397064 86.1398165,36.4397064 C79.4766972,36.4397064 76.320367,32.9325505 76.320367,27.0708991 L76.320367,12.6925505 C76.320367,6.83089908 79.4766972,3.37401835 86.1398165,3.37401835 C92.853211,3.37401835 95.9592661,6.83089908 95.9592661,12.6925505 L95.9592661,12.6925505 Z M112.490862,17.8026055 C115.596917,17.8026055 117.300037,16.5002202 117.300037,13.5442569 L117.300037,12.742422 C117.300037,9.78682569 115.596917,8.48407339 112.490862,8.48407339 L107.681321,8.48407339 L107.681321,17.8026055 L112.490862,17.8026055 Z M117.300037,21.609945 L122.05967,33.1328807 C122.260037,33.5339817 122.310312,33.8345321 122.310312,34.2855413 L122.310312,34.9868257 C122.310312,35.5875596 121.959486,35.9383853 121.358385,35.9383853 L118.602789,35.9383853 C118.051596,35.9383853 117.701138,35.6881101 117.500404,35.1871927 L112.290128,22.4117798 L107.681321,22.4117798 L107.681321,34.9868257 C107.681321,35.5875596 107.330495,35.9383853 106.729394,35.9383853 L103.623339,35.9383853 C103.021872,35.9383853 102.671046,35.5875596 102.671046,34.9868257 L102.671046,4.82682569 C102.671046,4.22572477 103.021872,3.87489908 103.623339,3.87489908 L112.490862,3.87489908 C119.20389,3.87489908 122.310312,7.33177982 122.310312,13.1435229 C122.310312,17.3016881 120.707009,20.2572844 117.300037,21.609945 L117.300037,21.609945 Z M148.611486,11.9410642 C148.661394,12.5421651 148.310936,12.8929908 147.709468,12.8929908 L144.553138,12.8929908 C143.952037,12.8929908 143.651486,12.5920734 143.601578,11.9410642 C143.300661,9.18546789 141.44745,7.98326606 138.79167,7.98326606 C135.635706,7.98326606 134.032404,9.48601835 134.032404,11.9410642 C134.032404,18.8045505 148.661394,17.0012477 148.661394,27.4717064 C148.661394,33.0830826 145.254789,36.4394128 138.841945,36.4394128 C132.779927,36.4394128 129.423229,33.2834495 129.072771,27.8728073 C129.022495,27.2713394 129.373321,26.9208807 129.974422,26.9208807 L133.130385,26.9208807 C133.731853,26.9208807 134.032404,27.2210642 134.082312,27.8728073 C134.383229,30.6280367 136.236807,31.8306055 138.942128,31.8306055 C142.098459,31.8306055 143.651486,30.3274862 143.651486,27.8225321 C143.651486,20.9590459 129.022495,22.8126239 129.022495,12.3417982 C129.022495,6.73078899 132.429101,3.37409174 138.841945,3.37409174 C144.903963,3.37409174 148.260661,6.53005505 148.611486,11.9410642 L148.611486,11.9410642 Z M175.162532,9.0853945 C175.162532,9.58631193 175.062349,9.88686239 174.861982,10.2875963 L167.697578,23.6644771 L167.697578,34.9866789 C167.697578,35.5877798 167.346752,35.9386055 166.745651,35.9386055 L163.639596,35.9386055 C163.038495,35.9386055 162.68767,35.5877798 162.68767,34.9866789 L162.68767,23.6644771 L155.523266,10.2875963 C155.322899,9.88686239 155.223083,9.58631193 155.223083,9.0853945 L155.223083,4.82704587 C155.223083,4.22557798 155.573541,3.87511927 156.175009,3.87511927 L159.281064,3.87511927 C159.882165,3.87511927 160.232624,4.22557798 160.232624,4.82704587 L160.232624,8.68466055 L165.192624,18.6542018 L170.152624,8.68466055 L170.152624,4.82704587 C170.152624,4.22557798 170.50345,3.87511927 171.104183,3.87511927 L174.210606,3.87511927 C174.811706,3.87511927 175.162532,4.22557798 175.162532,4.82704587 L175.162532,9.0853945 Z M201.313248,11.9410642 C201.363156,12.5421651 201.012697,12.8929908 200.411229,12.8929908 L197.254899,12.8929908 C196.653798,12.8929908 196.353248,12.5920734 196.303339,11.9410642 C196.002422,9.18546789 194.149211,7.98326606 191.493431,7.98326606 C188.337468,7.98326606 186.734165,9.48601835 186.734165,11.9410642 C186.734165,18.8045505 201.363156,17.0012477 201.363156,27.4717064 C201.363156,33.0830826 197.95655,36.4394128 191.543706,36.4394128 C185.481688,36.4394128 182.124991,33.2834495 181.774532,27.8728073 C181.724257,27.2713394 182.075083,26.9208807 182.676183,26.9208807 L185.832147,26.9208807 C186.433615,26.9208807 186.734165,27.2210642 186.784073,27.8728073 C187.084991,30.6280367 188.938569,31.8306055 191.64389,31.8306055 C194.80022,31.8306055 196.353248,30.3274862 196.353248,27.8225321 C196.353248,20.9590459 181.724257,22.8126239 181.724257,12.3417982 C181.724257,6.73078899 185.130862,3.37409174 191.543706,3.37409174 C197.605725,3.37409174 200.962422,6.53005505 201.313248,11.9410642 L201.313248,11.9410642 Z" id="Combined-Shape" fill="#F05F00"></path>
            </g>
            <path d="M202.376869,8.44036697 L203.312567,8.44036697 L203.312567,4.8619727 L204.581976,4.8619727 L204.581976,4.03669725 L201.100917,4.03669725 L201.100917,4.8619727 L202.376869,4.8619727 L202.376869,8.44036697 Z M208.972559,8.44036697 L209.908257,8.44036697 L209.908257,4.03669725 L208.599588,4.03669725 L207.539567,6.78321391 L206.479545,4.03669725 L205.17742,4.03669725 L205.17742,8.44036697 L206.106575,8.44036697 L206.106575,5.27130928 L207.336723,8.44036697 L207.74241,8.44036697 L208.972559,5.27130928 L208.972559,8.44036697 Z" id="TM" fill="#F05F00"></path>
        </g>
    </g>
</svg>